<svg width="20" height="19" viewBox="0 0 20 19" fill="none" xmlns="http://www.w3.org/2000/svg">
<path d="M5.088 9.456C4.32 9.456 3.624 9.288 3 8.952C2.376 8.6 1.88 8.104 1.512 7.464C1.144 6.824 0.96 6.064 0.96 5.184C0.96 4.304 1.144 3.544 1.512 2.904C1.88 2.264 2.376 1.776 3 1.44C3.624 1.088 4.328 0.912 5.112 0.912C5.88 0.912 6.568 1.088 7.176 1.44C7.8 1.776 8.296 2.264 8.664 2.904C9.032 3.544 9.216 4.304 9.216 5.184C9.216 6.064 9.032 6.824 8.664 7.464C8.296 8.104 7.8 8.6 7.176 8.952C6.552 9.288 5.856 9.456 5.088 9.456ZM4.176 18L13.656 1.2H16.656L7.176 18H4.176ZM5.088 7.32C5.552 7.32 5.952 7.144 6.288 6.792C6.624 6.424 6.792 5.888 6.792 5.184C6.792 4.48 6.624 3.944 6.288 3.576C5.968 3.208 5.568 3.024 5.088 3.024C4.608 3.024 4.2 3.208 3.864 3.576C3.544 3.944 3.384 4.48 3.384 5.184C3.384 5.888 3.544 6.424 3.864 6.792C4.2 7.144 4.608 7.32 5.088 7.32ZM15.84 18.288C15.072 18.288 14.376 18.12 13.752 17.784C13.128 17.432 12.632 16.936 12.264 16.296C11.896 15.656 11.712 14.896 11.712 14.016C11.712 13.136 11.896 12.384 12.264 11.76C12.632 11.12 13.128 10.632 13.752 10.296C14.376 9.944 15.08 9.768 15.864 9.768C16.632 9.768 17.32 9.944 17.928 10.296C18.552 10.632 19.048 11.12 19.416 11.76C19.784 12.384 19.968 13.136 19.968 14.016C19.968 14.896 19.784 15.656 19.416 16.296C19.048 16.936 18.552 17.432 17.928 17.784C17.32 18.12 16.624 18.288 15.84 18.288ZM15.84 16.152C16.32 16.152 16.72 15.976 17.04 15.624C17.376 15.256 17.544 14.72 17.544 14.016C17.544 13.312 17.376 12.776 17.04 12.408C16.72 12.04 16.32 11.856 15.84 11.856C15.36 11.856 14.952 12.04 14.616 12.408C14.296 12.776 14.136 13.312 14.136 14.016C14.136 14.72 14.296 15.256 14.616 15.624C14.952 15.976 15.36 16.152 15.84 16.152Z" fill="white"/>
</svg>
