<svg width="24" height="24" viewBox="0 0 24 24" fill="none" xmlns="http://www.w3.org/2000/svg">
<path d="M9 21C9.55228 21 10 20.5523 10 20C10 19.4477 9.55228 19 9 19C8.44772 19 8 19.4477 8 20C8 20.5523 8.44772 21 9 21Z" stroke="#414562" stroke-width="2" stroke-linecap="round" stroke-linejoin="round"/>
<path d="M19 21C19.5523 21 20 20.5523 20 20C20 19.4477 19.5523 19 19 19C18.4477 19 18 19.4477 18 20C18 20.5523 18.4477 21 19 21Z" stroke="#414562" stroke-width="2" stroke-linecap="round" stroke-linejoin="round"/>
<path d="M1.91666 1.9165H5.58332L8.03999 14.1907C8.12381 14.6127 8.35341 14.9918 8.68857 15.2616C9.02374 15.5314 9.44313 15.6747 9.87332 15.6665H18.7833C19.2135 15.6747 19.6329 15.5314 19.9681 15.2616C20.3032 14.9918 20.5328 14.6127 20.6167 14.1907L22.0833 6.49984H6.49999" stroke="#414562" stroke-width="2" stroke-linecap="round" stroke-linejoin="round"/>
</svg>
